<svg width="96" height="87" viewBox="0 0 96 87" fill="none" xmlns="http://www.w3.org/2000/svg">
<path d="M5.81856 13.154C5.81856 8.79756 6.98905 5.43993 9.33005 3.08112C11.3657 1.02704 13.9555 0 17.0994 0C21.3064 0 24.3825 1.37691 26.3277 4.13073C27.4021 5.67694 27.9788 7.22879 28.058 8.78627H22.8332C22.4939 7.58994 22.0585 6.68705 21.527 6.0776C20.577 4.99413 19.169 4.45239 17.303 4.45239C15.4031 4.45239 13.9046 5.21985 12.8076 6.75477C11.7106 8.2784 11.1621 10.4397 11.1621 13.2387C11.1621 16.0376 11.7389 18.1369 12.8924 19.5363C14.0573 20.9245 15.5331 21.6186 17.32 21.6186C19.152 21.6186 20.5487 21.0205 21.51 19.8241C22.0415 19.1808 22.4826 18.2159 22.8332 16.9292H28.0071C27.5547 19.6492 26.3956 21.8613 24.5295 23.5655C22.6748 25.2697 20.2943 26.1218 17.3878 26.1218C13.7915 26.1218 10.9642 24.9706 8.90595 22.6683C6.84769 20.3546 5.81856 17.1832 5.81856 13.154Z" fill="white"/>
<path d="M39.9156 22.0249C41.3293 22.0249 42.415 21.5227 43.1727 20.5182C43.9304 19.5138 44.3092 18.0861 44.3092 16.2351C44.3092 14.3842 43.9304 12.9622 43.1727 11.969C42.415 10.9645 41.3293 10.4623 39.9156 10.4623C38.502 10.4623 37.4107 10.9645 36.6416 11.969C35.8839 12.9622 35.5051 14.3842 35.5051 16.2351C35.5051 18.0861 35.8839 19.5138 36.6416 20.5182C37.4107 21.5227 38.502 22.0249 39.9156 22.0249ZM49.3814 16.2351C49.3814 18.9438 48.6011 21.2631 47.0404 23.1931C45.4797 25.1117 43.1105 26.071 39.9326 26.071C36.7547 26.071 34.3855 25.1117 32.8248 23.1931C31.2641 21.2631 30.4838 18.9438 30.4838 16.2351C30.4838 13.5716 31.2641 11.2636 32.8248 9.31108C34.3855 7.35858 36.7547 6.38232 39.9326 6.38232C43.1105 6.38232 45.4797 7.35858 47.0404 9.31108C48.6011 11.2636 49.3814 13.5716 49.3814 16.2351Z" fill="white"/>
<path d="M59.6784 6.53469C60.798 6.53469 61.7932 6.78298 62.664 7.27957C63.5348 7.76488 64.2416 8.44205 64.7845 9.31108V0.507877H69.687V25.4277H64.988V22.8714C64.2982 23.9662 63.5122 24.7618 62.6301 25.2584C61.7479 25.755 60.651 26.0033 59.3391 26.0033C57.179 26.0033 55.3583 25.1343 53.8768 23.3962C52.4066 21.6469 51.6715 19.4066 51.6715 16.6753C51.6715 13.5265 52.3953 11.0491 53.8429 9.24336C55.3017 7.43758 57.2469 6.53469 59.6784 6.53469ZM60.7301 21.9403C62.0985 21.9403 63.139 21.4324 63.8514 20.4167C64.5639 19.4009 64.9202 18.0861 64.9202 16.4721C64.9202 14.2149 64.349 12.601 63.2068 11.6304C62.5057 11.0435 61.6914 10.7501 60.764 10.7501C59.3504 10.7501 58.31 11.2862 57.6427 12.3583C56.9868 13.4192 56.6588 14.7397 56.6588 16.3198C56.6588 18.024 56.9924 19.3896 57.6597 20.4167C58.3382 21.4324 59.3617 21.9403 60.7301 21.9403Z" fill="white"/>
<path d="M81.3919 10.4623C80.2723 10.4623 79.4015 10.8121 78.7795 11.5119C78.1688 12.2116 77.7843 13.1597 77.626 14.356H85.1409C85.0618 13.0807 84.6716 12.1157 83.9704 11.4611C83.2806 10.7952 82.4211 10.4623 81.3919 10.4623ZM81.3919 6.4839C82.93 6.4839 84.3153 6.7717 85.548 7.34729C86.7807 7.92288 87.7986 8.83142 88.6015 10.0729C89.3253 11.1677 89.7946 12.4373 90.0095 13.882C90.1339 14.7284 90.1848 15.9473 90.1622 17.5387H77.5072C77.5751 19.3896 78.1575 20.6875 79.2545 21.4324C79.9217 21.8951 80.7247 22.1265 81.6634 22.1265C82.6586 22.1265 83.4672 21.8444 84.0892 21.2801C84.4284 20.9753 84.7281 20.5521 84.9882 20.0104H89.9247C89.8003 21.1051 89.2292 22.2168 88.2114 23.3454C86.6281 25.1399 84.4115 26.0372 81.5616 26.0372C79.2093 26.0372 77.134 25.281 75.3359 23.7687C73.5377 22.2563 72.6387 19.7959 72.6387 16.3875C72.6387 13.1935 73.4473 10.7444 75.0645 9.04021C76.693 7.336 78.8021 6.4839 81.3919 6.4839Z" fill="white"/>
<path d="M0 45.8989C0 41.5425 1.1705 38.1848 3.51149 35.826C5.54714 33.772 8.13693 32.7449 11.2809 32.7449C15.4879 32.7449 18.564 34.1218 20.5091 36.8756C21.5835 38.4218 22.1603 39.9737 22.2394 41.5312H17.0146C16.6753 40.3349 16.2399 39.432 15.7084 38.8225C14.7584 37.739 13.3504 37.1973 11.4844 37.1973C9.5845 37.1973 8.08604 37.9648 6.98905 39.4997C5.89207 41.0233 5.34357 43.1846 5.34357 45.9836C5.34357 48.7825 5.92034 50.8818 7.07387 52.2813C8.23871 53.6694 9.71456 54.3635 11.5014 54.3635C13.3335 54.3635 14.7302 53.7654 15.6914 52.569C16.223 51.9257 16.664 50.9608 17.0146 49.6741H22.1885C21.7362 52.3941 20.577 54.6062 18.711 56.3104C16.8563 58.0146 14.4757 58.8667 11.5693 58.8667C7.97295 58.8667 5.14566 57.7155 3.0874 55.4132C1.02913 53.0995 0 49.9281 0 45.8989Z" fill="white"/>
<path d="M35.997 49.2001C35.6917 49.392 35.3807 49.55 35.064 49.6741C34.7587 49.787 34.3346 49.8942 33.7917 49.9958L32.7061 50.199C31.6882 50.3795 30.9588 50.5996 30.5177 50.8592C29.7713 51.2994 29.3981 51.9822 29.3981 52.9076C29.3981 53.7315 29.6243 54.3297 30.0767 54.7021C30.5404 55.0633 31.1002 55.2439 31.7561 55.2439C32.7965 55.2439 33.7522 54.9391 34.623 54.3297C35.5051 53.7202 35.9631 52.6086 35.997 50.9946V49.2001ZM33.0623 46.9485C33.9557 46.8357 34.5947 46.6946 34.9792 46.5253C35.6691 46.2319 36.014 45.7748 36.014 45.154C36.014 44.3979 35.7482 43.8787 35.2167 43.5966C34.6965 43.3031 33.9274 43.1564 32.9096 43.1564C31.7674 43.1564 30.9588 43.4385 30.4838 44.0029C30.1445 44.4204 29.9183 44.9847 29.8053 45.6958H25.1402C25.242 44.0819 25.6944 42.7557 26.4973 41.7174C27.7753 40.0922 29.9692 39.2796 33.0793 39.2796C35.1036 39.2796 36.9017 39.6803 38.4737 40.4816C40.0457 41.2829 40.8317 42.7952 40.8317 45.0186V53.4832C40.8317 54.0701 40.843 54.7811 40.8656 55.6163C40.8995 56.2483 40.9957 56.6772 41.154 56.9029C41.3123 57.1287 41.5498 57.3149 41.8665 57.4616V58.1726H36.6077C36.4607 57.8002 36.3589 57.4503 36.3024 57.123C36.2458 56.7957 36.2006 56.4233 36.1667 56.0057C35.4994 56.728 34.7304 57.3431 33.8596 57.851C32.8191 58.4491 31.643 58.7482 30.3311 58.7482C28.6574 58.7482 27.272 58.2742 26.175 57.3262C25.0893 56.3668 24.5465 55.0125 24.5465 53.2631C24.5465 50.9946 25.423 49.3525 27.1759 48.3367C28.1372 47.7837 29.5508 47.3887 31.4168 47.1517L33.0623 46.9485Z" fill="white"/>
<path d="M55.183 39.2796C55.2735 39.2796 55.347 39.2852 55.4035 39.2965C55.4714 39.2965 55.6127 39.3022 55.8276 39.3135V44.2568C55.5223 44.2229 55.2508 44.2004 55.0133 44.1891C54.7759 44.1778 54.5836 44.1721 54.4366 44.1721C52.4914 44.1721 51.1852 44.8042 50.518 46.0682C50.1448 46.7792 49.9582 47.874 49.9582 49.3525V58.1726H45.0896V39.7198H49.7037V42.9363C50.4501 41.7061 51.1004 40.8653 51.6545 40.4139C52.5593 39.6577 53.7354 39.2796 55.183 39.2796Z" fill="white"/>
<path d="M65.4969 39.2796C66.6165 39.2796 67.6117 39.5279 68.4825 40.0245C69.3533 40.5098 70.0602 41.187 70.603 42.056V33.2528H75.5055V58.1726H70.8066V55.6163C70.1167 56.7111 69.3307 57.5067 68.4486 58.0033C67.5665 58.4999 66.4695 58.7482 65.1577 58.7482C62.9976 58.7482 61.1768 57.8792 59.6953 56.1411C58.2251 54.3918 57.4901 52.1515 57.4901 49.4202C57.4901 46.2714 58.2138 43.7941 59.6614 41.9883C61.1203 40.1825 63.0655 39.2796 65.4969 39.2796ZM66.5487 54.6852C67.9171 54.6852 68.9575 54.1773 69.67 53.1616C70.3825 52.1458 70.7387 50.831 70.7387 49.2171C70.7387 46.9598 70.1676 45.3459 69.0254 44.3753C68.3242 43.7884 67.51 43.495 66.5826 43.495C65.169 43.495 64.1285 44.0311 63.4613 45.1033C62.8054 46.1642 62.4774 47.4846 62.4774 49.0647C62.4774 50.7689 62.811 52.1345 63.4782 53.1616C64.1568 54.1773 65.1803 54.6852 66.5487 54.6852Z" fill="white"/>
<path d="M83.682 52.2813C83.7838 53.139 84.0043 53.7485 84.3436 54.1096C84.943 54.7529 86.0513 55.0746 87.6685 55.0746C88.6185 55.0746 89.3705 54.9335 89.9247 54.6513C90.4901 54.3692 90.7729 53.946 90.7729 53.3817C90.7729 52.8399 90.5467 52.428 90.0943 52.1458C89.642 51.8637 87.9625 51.3784 85.0561 50.6899C82.9639 50.1707 81.4881 49.5218 80.6286 48.743C79.7691 47.9756 79.3393 46.8695 79.3393 45.4249C79.3393 43.7207 80.0066 42.2591 81.341 41.0402C82.6868 39.81 84.5755 39.195 87.0069 39.195C89.314 39.195 91.1913 39.6577 92.6389 40.5831C94.0978 41.4973 94.9346 43.083 95.1495 45.3403H90.3149C90.247 44.7195 90.0717 44.2286 89.789 43.8674C89.2574 43.2128 88.3527 42.8855 87.0748 42.8855C86.023 42.8855 85.271 43.0492 84.8186 43.3765C84.3775 43.7038 84.157 44.0875 84.157 44.5277C84.157 45.0807 84.3945 45.4813 84.8695 45.7296C85.3445 45.9892 87.0239 46.435 89.9077 47.067C91.8303 47.5185 93.2722 48.2013 94.2335 49.1155C95.1834 50.0409 95.6584 51.1978 95.6584 52.586C95.6584 54.4143 94.9742 55.9098 93.6058 57.0722C92.2487 58.2234 90.1452 58.799 87.2953 58.799C84.3889 58.799 82.2401 58.1896 80.8491 56.9707C79.4694 55.7405 78.7795 54.1773 78.7795 52.2813H83.682Z" fill="white"/>
<path fill-rule="evenodd" clip-rule="evenodd" d="M64.1688 73.0285C62.4222 71.586 59.8246 71.8455 58.2215 73.4486L57.5936 74.0757L56.9658 73.4486C55.3658 71.8455 52.7651 71.586 51.0185 73.0285C49.017 74.6842 48.9118 77.6558 50.703 79.4505L56.8701 85.6222C57.2685 86.0207 57.9155 86.0207 58.3139 85.6222L64.4811 79.4505C66.2755 77.6558 66.1703 74.6842 64.1688 73.0285Z" fill="#F0C711"/>
<path fill-rule="evenodd" clip-rule="evenodd" d="M78.8905 71.7078C78.6175 71.4493 78.1917 71.4493 77.9187 71.7078C76.5094 73.0533 72.4634 76.9489 71.8292 77.651C71.2625 78.2768 70.8896 79.1023 70.8896 80.0189C70.8896 82.0901 72.5016 83.7265 74.5157 83.7353C75.5933 83.7382 76.5622 83.274 77.2316 82.5337C77.2287 83.6089 77.2081 84.0702 75.6931 84.7488C75.2791 84.9339 75.0413 85.3834 75.1441 85.8241C75.241 86.25 75.6226 86.5526 76.0601 86.5526H80.7403C81.1954 86.5526 81.5976 86.2354 81.6828 85.7888C81.765 85.3599 81.5418 84.931 81.1425 84.7547C79.6275 84.079 79.5923 83.6354 79.5864 82.5337C80.2734 83.2917 81.2746 83.7617 82.3845 83.7323C84.3664 83.6824 85.9284 82.0725 85.9284 80.0894C85.9284 79.1434 85.5702 78.2915 84.9888 77.6481C84.3487 76.9489 80.3028 73.0533 78.8905 71.7078Z" fill="#3598D3"/>
<path fill-rule="evenodd" clip-rule="evenodd" d="M21.3813 76.5436C22.2947 74.2111 20.5778 71.656 18.0429 71.656C15.5052 71.656 13.7941 74.214 14.7045 76.5436C12.5425 76.2575 10.6436 77.9368 10.6436 80.0959C10.6436 82.0758 12.2477 83.68 14.2276 83.68C15.2826 83.68 16.2307 83.2233 16.8868 82.4978C16.8839 83.5586 16.8637 84.0124 15.3549 84.6829C14.956 84.8593 14.7363 85.2928 14.8259 85.7206C14.9155 86.1484 15.2942 86.4547 15.7306 86.4547H20.3552C20.7917 86.4547 21.1703 86.1484 21.2599 85.7206C21.3495 85.2928 21.1299 84.8621 20.731 84.6829C19.2395 84.0182 19.2049 83.5817 19.1991 82.4978C19.8552 83.2233 20.8032 83.68 21.8582 83.68C23.8381 83.68 25.4423 82.0758 25.4423 80.0959C25.4423 77.9339 23.5404 76.2575 21.3813 76.5436Z" fill="#4CBA6E"/>
<path fill-rule="evenodd" clip-rule="evenodd" d="M37.9867 71.4834C37.6971 71.1452 37.1782 71.1452 36.8886 71.4834L30.8547 78.5522C30.6194 78.8265 30.6194 79.2317 30.8547 79.5059L36.8886 86.5748C37.1782 86.913 37.6971 86.913 37.9867 86.5748L44.0206 79.5059C44.2559 79.2317 44.2559 78.8265 44.0206 78.5522L37.9867 71.4834Z" fill="#E74B3C"/>
</svg>
