<svg width="708" height="224" viewBox="0 0 708 224" fill="none" xmlns="http://www.w3.org/2000/svg">
<path fill-rule="evenodd" clip-rule="evenodd" d="M458.076 141.992C354.306 129.402 215.18 129.419 73.5037 179.716L71.4963 174.062C214.32 123.358 354.444 123.375 458.799 136.036C510.987 142.367 554.262 151.865 584.502 159.784C599.623 163.743 611.488 167.309 619.582 169.888C623.629 171.177 626.733 172.22 628.83 172.943C629.879 173.304 630.676 173.585 631.213 173.777C631.482 173.872 631.686 173.946 631.823 173.996L631.98 174.053L632.033 174.072C632.036 174.073 632.038 174.074 631 176.889C629.962 179.704 629.962 179.704 629.961 179.703L629.954 179.7L629.92 179.688L629.777 179.636C629.65 179.59 629.456 179.52 629.198 179.428C628.68 179.243 627.904 178.97 626.877 178.616C624.821 177.908 621.761 176.88 617.76 175.605C609.758 173.055 597.994 169.519 582.982 165.588C552.957 157.725 509.951 148.286 458.076 141.992Z" fill="url(#paint0_linear)"/>
<path fill-rule="evenodd" clip-rule="evenodd" d="M458.076 155.379C354.306 142.789 215.18 142.806 73.5037 193.103L71.4963 187.449C214.32 136.745 354.444 136.762 458.799 149.423C510.987 155.754 554.262 165.252 584.502 173.171C599.623 177.13 611.488 180.696 619.582 183.275C623.629 184.564 626.733 185.607 628.83 186.33C629.879 186.691 630.676 186.972 631.213 187.164C631.482 187.259 631.686 187.333 631.823 187.383L631.98 187.44L632.033 187.459C632.036 187.46 632.038 187.461 631 190.276C629.962 193.091 629.962 193.091 629.961 193.09L629.954 193.087L629.92 193.075L629.777 193.023C629.65 192.977 629.456 192.907 629.198 192.815C628.68 192.63 627.904 192.357 626.877 192.003C624.821 191.295 621.761 190.267 617.76 188.992C609.758 186.442 597.994 182.906 582.982 178.975C552.957 171.112 509.951 161.672 458.076 155.379Z" fill="url(#paint1_linear)"/>
<path fill-rule="evenodd" clip-rule="evenodd" d="M458.076 170.379C354.306 157.789 215.18 157.806 73.5037 208.103L71.4963 202.449C214.32 151.745 354.444 151.762 458.799 164.423C510.987 170.754 554.262 180.252 584.502 188.171C599.623 192.13 611.488 195.696 619.582 198.275C623.629 199.564 626.733 200.607 628.83 201.33C629.879 201.691 630.676 201.972 631.213 202.164C631.482 202.259 631.686 202.333 631.823 202.383L631.98 202.44L632.033 202.459C632.036 202.46 632.038 202.461 631 205.276C629.962 208.091 629.962 208.091 629.961 208.09L629.954 208.087L629.92 208.075L629.777 208.023C629.65 207.977 629.456 207.907 629.198 207.815C628.68 207.63 627.904 207.357 626.877 207.003C624.821 206.295 621.761 205.267 617.76 203.992C609.758 201.442 597.994 197.906 582.982 193.975C552.957 186.112 509.951 176.672 458.076 170.379Z" fill="url(#paint2_linear)"/>
<path fill-rule="evenodd" clip-rule="evenodd" d="M458.076 184.379C354.306 171.789 215.18 171.806 73.5037 222.103L71.4963 216.449C214.32 165.745 354.444 165.762 458.799 178.423C510.987 184.754 554.262 194.252 584.502 202.171C599.623 206.13 611.488 209.696 619.582 212.275C623.629 213.564 626.733 214.607 628.83 215.33C629.879 215.691 630.676 215.972 631.213 216.164C631.482 216.259 631.686 216.333 631.823 216.383L631.98 216.44L632.033 216.459C632.036 216.46 632.038 216.461 631 219.276C629.962 222.091 629.962 222.091 629.961 222.09L629.954 222.087L629.92 222.075L629.777 222.023C629.65 221.977 629.456 221.907 629.198 221.815C628.68 221.63 627.904 221.357 626.877 221.003C624.821 220.295 621.761 219.267 617.76 217.992C609.758 215.442 597.994 211.906 582.982 207.975C552.957 200.112 509.951 190.672 458.076 184.379Z" fill="url(#paint3_linear)"/>
<path d="M117.453 63.1026C119.052 63.2105 120.03 63.8517 120.388 65.0262C120.876 66.6305 119.659 68.8015 116.737 71.5392C113.675 73.4111 110.44 74.8665 107.031 75.9052L92.5704 80.0767C84.4058 82.5644 79.6264 85.1164 78.2321 87.7328C77.3357 89.4147 77.1712 91.1868 77.7386 93.0489L78.0659 94.1231C78.4587 95.4123 79.5146 95.795 81.2334 95.2712L85.2502 93.8125C85.9129 93.8297 86.4518 94.0569 86.8667 94.494L87.3905 96.2129C87.9142 97.9317 85.8126 99.5113 81.0858 100.952C78.7291 101.231 76.3746 100.696 74.0223 99.3469C72.7911 97.8749 71.9966 96.5517 71.6387 95.3771L71.3768 94.5177C69.8405 89.4757 71.3775 85.0157 75.9877 81.1377C79.7352 78.7436 83.3564 77.014 86.8514 75.9491L104.685 70.5154C110.729 68.6736 114.064 67.0313 114.689 65.5886C115.586 64.2193 116.508 63.3907 117.453 63.1026ZM99.9326 81.1206L100.792 80.8588C101.952 81.0689 102.671 81.6324 102.951 82.5491C103.178 83.2939 102.372 86.044 100.534 90.7993C98.6477 98.4807 98.8962 106.232 101.279 114.053C102.34 120.617 102.806 125.484 102.676 128.655C102.108 135.214 100.222 140.328 97.0193 143.997C94.8625 146.063 91.9793 147.646 88.3697 148.746L87.5102 149.007C80.9213 151.015 75.8699 150.363 72.356 147.05C70.0821 145.239 68.7051 143.545 68.225 141.969L67.5703 139.821C66.3483 135.81 67.577 131.366 71.2563 126.488C72.7706 125.087 75.0031 123.937 77.9538 123.038C82.7818 122.444 85.5319 123.249 86.204 125.455L86.5314 126.53C86.3349 127.529 85.6064 128.22 84.3459 128.604C82.106 128.035 80.1409 128.007 78.4507 128.522L78.021 128.653C75.099 129.543 73.4025 131.939 72.9317 135.839L73.5679 138.698C73.9345 139.901 75.1962 141.473 77.3531 143.414C79.7253 144.727 82.0859 145.025 84.435 144.309L85.0796 144.113C91.6399 142.114 95.3322 138.562 96.1564 133.459C96.9082 131.508 97.2466 128.509 97.1718 124.461C95.6738 114.305 94.7309 106.844 94.3432 102.078C94.1809 97.0241 95.2937 90.6584 97.6816 82.9805C98.3515 81.9937 99.1018 81.3738 99.9326 81.1206Z" fill="white"/>
<path d="M129.649 93.3053C134.655 83.3587 136.825 75.709 136.157 70.3565L136.115 70.1817C135.897 69.5259 135.413 69.2416 134.664 69.3288L134.402 69.3916C131.315 70.1318 129.73 78.103 129.649 93.3053ZM124.171 103.211C121.741 104.379 119.822 105.301 118.413 105.978C117.005 106.654 116.077 106.83 115.63 106.506C115.147 106.16 114.81 105.656 114.62 104.993C114.424 104.301 114.808 103.655 115.772 103.054C116.701 102.431 117.443 101.93 117.998 101.55C118.518 101.148 120.502 99.9179 123.95 97.8592C125.478 81.1091 126.489 71.9048 126.984 70.2462C127.48 68.5876 128.132 67.2609 128.94 66.2663C129.749 65.2717 130.908 64.4549 132.418 63.8157C133.06 63.5386 133.672 63.3302 134.254 63.1905C135.012 63.009 135.702 62.9358 136.327 62.9708C137.459 63.0689 138.41 63.4413 139.181 64.0879C139.952 64.7346 140.538 65.8262 140.937 67.3627L140.989 67.5811C141.352 69.0955 141.481 71.2359 141.374 74.0024C141.23 76.8702 140.599 79.8241 139.48 82.864C138.39 85.8971 136.948 88.9376 135.153 91.9856C133.359 95.0336 131.328 98.1229 129.06 101.253L129.057 108.368C132.36 102.618 134.727 99.3251 136.158 98.4891C137.619 97.646 138.961 97.0779 140.184 96.7846C141.408 96.4913 142.595 96.5609 143.745 96.9933C144.889 97.3966 145.877 98.561 146.708 100.487C146.814 100.8 146.912 101.146 147.003 101.525C147.506 103.621 147.524 106.974 147.058 111.582C146.545 116.632 146.491 120.002 146.896 121.691L146.99 122.085C147.513 123.622 148.112 124.71 148.789 125.349C149.488 125.951 150.408 126.131 151.551 125.888L151.595 125.877C152.701 125.612 153.858 124.657 155.065 123.012C156.266 121.339 157.148 119.495 157.712 117.481C158.305 115.46 158.769 114.056 159.104 113.267C159.46 112.442 159.946 111.833 160.56 111.44C160.852 111.246 161.144 111.115 161.435 111.045C161.755 110.968 162.075 110.953 162.394 111C163.003 111.1 163.49 111.522 163.853 112.267C163.924 112.435 163.984 112.62 164.033 112.824C164.186 113.465 164.136 114.216 163.88 115.078C163.535 116.208 162.606 118.433 161.092 121.752C159.6 125.035 158.012 127.464 156.326 129.039C154.896 130.398 153.424 131.259 151.91 131.622C151.619 131.692 151.338 131.744 151.069 131.778C149.244 132 147.761 131.786 146.619 131.135C145.5 130.449 144.576 129.485 143.847 128.243C143.111 126.972 142.505 125.408 142.029 123.551L141.998 123.42C141.551 121.556 141.49 118.414 141.816 113.994C142.128 109.515 142.329 106.757 142.419 105.719C142.439 105.16 142.397 104.662 142.292 104.225C142.201 103.846 142.059 103.511 141.866 103.218C141.436 102.582 140.657 102.353 139.53 102.531L139.268 102.594C138.219 102.845 137.133 103.583 136.01 104.807C134.799 106.176 132.596 109.768 129.402 115.585C129.133 128.337 128.977 135.135 128.932 135.977C128.881 136.79 128.389 137.308 127.457 137.531C126.496 137.762 125.785 137.686 125.324 137.304C124.978 137.017 124.728 136.554 124.575 135.913C124.533 135.738 124.499 135.531 124.472 135.291C124.343 134.367 124.243 123.674 124.171 103.211Z" fill="white"/>
<path d="M187.285 98.1258C186.715 96.2217 185.908 94.9257 184.865 94.2376C183.822 93.5496 182.737 93.2047 181.609 93.2029C181.368 93.2176 181.115 93.2498 180.85 93.2994C179.879 93.4816 178.745 94.0142 177.448 94.8973C175.836 96.0526 174.513 97.8546 173.479 100.303C172.47 102.717 171.934 104.981 171.874 107.094C171.842 109.203 171.988 111.278 172.31 113.32L172.417 113.894C172.743 115.631 173.241 116.908 173.913 117.727C174.636 118.658 175.433 119.255 176.305 119.518C176.598 119.615 176.936 119.628 177.318 119.556C178.025 119.424 178.849 119.026 179.791 118.362C181.248 117.357 182.673 115.536 184.068 112.898C185.492 110.254 186.301 107.908 186.496 105.861C186.691 103.813 186.954 101.235 187.285 98.1258ZM188.044 91.4477C188.28 88.4785 188.711 86.7979 189.338 86.406C189.699 86.2165 190.071 86.0859 190.453 86.0142C190.718 85.9645 191.003 85.9415 191.309 85.9452C191.965 86.0353 192.413 86.6369 192.653 87.7499L192.661 87.794C192.882 88.9714 192.773 92.3739 192.335 98.0015C191.909 103.688 191.692 107.735 191.687 110.143C191.696 111.818 191.778 113.067 191.933 113.891C192.004 114.274 192.089 114.562 192.187 114.757C192.496 115.431 192.977 115.965 193.63 116.361C194.283 116.756 194.963 116.888 195.669 116.755C196.346 116.628 197.228 116.052 198.315 115.025C199.403 113.998 200.472 111.985 201.525 108.984C202.577 105.984 203.339 104.196 203.81 103.62C204.185 103.184 204.52 102.938 204.814 102.883C204.873 102.872 204.934 102.876 204.999 102.894C205.315 102.957 205.68 103.193 206.092 103.603C206.533 104.008 206.857 104.435 207.063 104.884C207.155 105.049 207.22 105.235 207.259 105.441C207.32 105.765 207.324 106.114 207.273 106.49C207.207 107.111 206.511 109.253 205.187 112.914C203.857 116.545 202.415 118.933 200.863 120.078C199.304 121.193 197.891 121.945 196.624 122.335C196.394 122.409 196.176 122.465 195.97 122.503C194.881 122.708 193.728 122.573 192.512 122.101C191.039 121.554 189.312 119.821 187.333 116.902C186.26 119.144 185.205 120.911 184.167 122.203C183.13 123.494 181.6 124.436 179.578 125.029C179.148 125.17 178.727 125.28 178.314 125.357C176.813 125.638 175.504 125.564 174.388 125.133C172.944 124.582 171.707 123.595 170.679 122.173C169.68 120.745 168.84 118.785 168.159 116.292C167.968 115.597 167.801 114.866 167.657 114.101C167.293 112.158 167.089 110.018 167.047 107.68C166.957 104.436 167.426 101.575 168.454 99.0974C169.477 96.5899 170.563 94.4972 171.711 92.8194C172.858 91.1416 174.204 89.8685 175.748 89.0002C176.907 88.3563 178.266 87.888 179.826 87.5955C180.327 87.5017 180.844 87.4198 181.38 87.3499C183.591 87.1181 185.813 88.484 188.044 91.4477Z" fill="white"/>
<path d="M228.323 72.49L218.11 74.0567C215.508 93.738 214.413 105.107 214.824 108.164L214.85 108.342C215.27 111.247 216.441 112.757 218.364 112.873C218.856 112.923 219.383 112.907 219.946 112.826C221.398 112.616 222.924 111.972 224.523 110.893C226.651 109.496 228.431 107.575 229.863 105.129C231.324 102.678 232.224 101.051 232.561 100.245C232.929 99.4358 233.546 98.7868 234.413 98.2983C234.722 98.1326 235.025 98.0284 235.321 97.9855C235.825 97.9127 236.298 98.0411 236.739 98.3708C237.256 98.8104 237.56 99.3414 237.65 99.9639L237.701 100.32C237.694 101.107 237.482 102.046 237.064 103.135C236.672 104.19 235.77 105.909 234.36 108.292C232.979 110.67 231.007 112.937 228.444 115.092C226.007 117.079 223.485 118.26 220.877 118.637C220.669 118.667 220.474 118.68 220.292 118.676C217.459 118.964 215.381 118.72 214.059 117.943C212.766 117.161 211.807 116.075 211.182 114.682C210.553 113.26 210.059 111.622 209.7 109.767L209.649 109.412C209.357 107.396 209.456 103.161 209.946 96.7054C210.472 89.8815 211.416 82.5889 212.775 74.8277C197.629 77.0166 189.785 78.014 189.243 77.8201C188.696 77.5965 188.314 77.0465 188.096 76.1702C188.045 76.0263 188.011 75.895 187.994 75.7765C187.891 75.0651 188.087 74.4316 188.582 73.876C189.051 73.3543 196.711 72.0204 211.56 69.8744C212.242 69.7759 212.97 69.6858 213.745 69.604C215.743 56.0013 216.998 48.8755 217.509 48.2267C218.021 47.5778 218.78 47.1806 219.788 47.035C220.826 46.8851 221.542 47.0237 221.936 47.4508L221.962 47.6286C222.125 48.7549 221.096 55.7723 218.877 68.6809L228.169 67.338C230.362 67.021 231.826 66.9911 232.559 67.2483C233.287 67.4758 233.731 68.032 233.889 68.9169L233.902 69.0058C234.026 69.8654 233.782 70.5815 233.169 71.1543C232.636 71.6549 231.406 72.0445 229.479 72.3229L228.323 72.49Z" fill="white"/>
<path d="M248.524 55.4902L248.002 53.289C249.637 52.5604 250.62 51.6648 250.951 50.6023C249.475 50.0771 248.573 49.17 248.246 47.8811C248.182 47.5869 248.133 47.291 248.099 46.9935C247.998 46.1008 248.136 45.3315 248.515 44.6856C248.996 43.8774 249.578 43.2987 250.261 42.9496C250.83 42.6439 251.53 42.4436 252.363 42.3488L252.81 42.298C253.858 42.239 254.755 42.5739 255.501 43.3029C256.277 44.0284 256.82 45.0968 257.132 46.5082C257.199 46.8321 257.247 47.128 257.278 47.3958C257.4 48.467 257.285 49.4446 256.933 50.3285C256.49 51.4641 255.678 52.5361 254.496 53.5446C253.312 54.5234 251.41 55.1618 248.792 55.4597L248.524 55.4902Z" fill="white"/>
<path d="M275.337 74.4024C275.79 74.0657 276.271 73.8772 276.779 73.8367C277.017 73.8176 277.257 73.8135 277.499 73.8243C278.262 73.9737 278.78 74.4431 279.053 75.2325L279.078 75.5459C279.147 76.4117 278.594 77.9579 277.42 80.1847L281.257 85.9172C284.906 92.1154 286.868 96.9311 287.142 100.364C287.201 101.11 287.18 101.788 287.078 102.397C289.55 99.1055 291.11 96.6377 291.76 94.9935C292.385 93.4115 293.131 92.5859 293.996 92.5169L294.086 92.5097C294.986 92.498 295.648 92.8808 296.07 93.6583C296.25 94.0345 296.357 94.4315 296.391 94.8495C296.426 95.2973 296.372 95.7522 296.229 96.2143C295.945 97.1683 295.378 98.5355 294.528 100.316C293.679 102.096 292.054 104.328 289.655 107.013C287.253 109.669 284.335 111.313 280.9 111.948C280.191 112.095 279.508 112.194 278.851 112.247C276.373 112.444 274.359 112.049 272.808 111.061C270.85 109.866 269.697 108.591 269.349 107.236C269.226 106.826 269.15 106.441 269.121 106.083C269.059 105.307 269.206 104.694 269.561 104.245C269.913 103.766 270.403 103.502 271.029 103.452C271.209 103.438 271.419 103.436 271.66 103.447C272.602 103.582 273.293 104.143 273.732 105.129C274.171 106.116 274.656 106.738 275.188 106.996C275.747 107.222 276.464 107.36 277.339 107.41C277.461 107.43 277.581 107.436 277.701 107.426C278.507 107.362 279.525 106.95 280.757 106.191C282.048 105.427 282.588 103.732 282.379 101.105L282.314 100.299C281.917 97.2058 279.481 92.2778 275.006 85.5146C270.638 92.8932 268.074 97.0934 267.314 98.1154C266.717 98.9141 266.075 99.3409 265.388 99.3957C265.179 99.4123 264.982 99.383 264.795 99.3078C263.848 99.1129 263.27 98.453 263.06 97.3282C263.023 97.241 263.002 97.1675 262.998 97.1078C262.907 95.9734 263.628 94.2785 265.161 92.0232C266.771 89.6115 268.692 86.1986 270.923 81.7845C273.185 77.368 274.656 74.9073 275.337 74.4024Z" fill="white"/>
<path d="M343.472 83.5274C343.245 81.5527 342.679 80.1351 341.773 79.2744C340.867 78.4138 339.859 77.8835 338.749 77.6835C338.509 77.6557 338.255 77.6429 337.985 77.6453C336.997 77.6539 335.787 77.9789 334.355 78.6203C332.565 79.4745 330.947 81.016 329.499 83.2448C328.08 85.4435 327.155 87.5779 326.724 89.6482C326.323 91.7182 326.101 93.7866 326.059 95.8534L326.065 96.4374C326.08 98.2042 326.346 99.5496 326.863 100.474C327.412 101.517 328.092 102.245 328.904 102.657C329.175 102.804 329.505 102.876 329.894 102.873C330.613 102.867 331.494 102.619 332.538 102.131C334.149 101.398 335.873 99.8559 337.709 97.5039C339.575 95.1516 340.784 92.9847 341.336 91.0033C341.888 89.0218 342.6 86.5299 343.472 83.5274ZM345.393 77.0865C346.146 74.2049 346.866 72.6263 347.553 72.3507C347.941 72.2276 348.33 72.1643 348.719 72.1609C348.989 72.1585 349.273 72.186 349.573 72.2433C350.204 72.4474 350.539 73.1184 350.579 74.2561L350.58 74.301C350.59 75.4989 349.885 78.8294 348.465 84.2925C347.046 89.8155 346.122 93.7618 345.693 96.1315C345.408 97.7812 345.269 99.0253 345.277 99.8638C345.28 100.253 345.313 100.552 345.374 100.761C345.56 101.479 345.94 102.089 346.514 102.593C347.087 103.098 347.733 103.346 348.452 103.34C349.141 103.334 350.11 102.921 351.361 102.102C352.612 101.282 354.019 99.4881 355.582 96.7192C357.145 93.9502 358.209 92.3237 358.774 91.8396C359.22 91.4763 359.593 91.2934 359.892 91.2908C359.952 91.2903 360.012 91.3047 360.072 91.3341C360.373 91.4513 360.69 91.748 361.023 92.2243C361.387 92.7003 361.631 93.1774 361.755 93.6555C361.816 93.8347 361.848 94.0291 361.849 94.2387C361.852 94.5681 361.795 94.913 361.679 95.2734C361.504 95.8739 360.443 97.8598 358.496 101.231C356.549 104.572 354.71 106.67 352.981 107.524C351.251 108.347 349.728 108.84 348.411 109.001C348.172 109.033 347.947 109.05 347.738 109.052C346.63 109.061 345.519 108.727 344.405 108.048C343.05 107.251 341.655 105.241 340.219 102.019C338.769 104.039 337.42 105.593 336.172 106.682C334.923 107.771 333.252 108.429 331.158 108.657C330.709 108.721 330.275 108.755 329.856 108.758C328.328 108.772 327.053 108.468 326.029 107.848C324.705 107.051 323.661 105.862 322.898 104.282C322.166 102.701 321.684 100.624 321.451 98.0499C321.385 97.3317 321.349 96.5833 321.342 95.8047C321.325 93.8282 321.501 91.6853 321.87 89.376C322.351 86.1673 323.316 83.4335 324.764 81.1747C326.211 78.886 327.647 77.0166 329.072 75.5666C330.497 74.1167 332.046 73.0999 333.718 72.5163C334.972 72.086 336.392 71.864 337.98 71.8502C338.489 71.8457 339.013 71.8561 339.552 71.8814C341.77 72.0418 343.717 73.7768 345.393 77.0865Z" fill="white"/>
<path d="M375.373 73.3849C382.575 66.8557 387.123 60.3867 389.018 53.9782C389.929 50.9525 390.408 48.7213 390.457 47.2846C390.5 45.9976 390.193 45.3429 389.534 45.3207C389.384 45.3157 389.22 45.3101 389.04 45.3041L388.726 45.2935C385.581 45.2474 381.13 54.6112 375.373 73.3849ZM368.669 76.2603C374.629 58.5721 378.461 48.4533 380.165 45.9038C381.9 43.3254 383.29 41.6642 384.334 40.9204C385.378 40.1765 386.712 39.6971 388.338 39.4822C389.03 39.3857 389.676 39.3475 390.274 39.3677C391.052 39.3939 391.738 39.5069 392.33 39.7067C393.396 40.1022 394.214 40.7141 394.786 41.5424C395.357 42.3707 395.631 43.5786 395.607 45.1659L395.598 45.4353C395.544 47.0516 395.229 49.2733 394.654 52.1006C394.043 55.1364 392.933 58.2753 391.325 61.5172C389.748 64.7602 387.491 68.16 384.554 71.7167C381.617 75.2735 377.705 78.4377 372.817 81.2095C370.307 90.7736 369.019 96.5583 368.951 98.5637L368.939 98.9228C369.034 100.544 369.323 101.752 369.806 102.548C370.319 103.314 371.159 103.732 372.325 103.801L372.37 103.803C373.538 103.842 375.308 103.318 377.682 102.229C380.116 101.143 382.219 99.6403 383.992 97.7223C385.766 95.7745 386.918 94.4649 387.45 93.7937C388.013 93.0935 388.643 92.6353 389.34 92.4191C389.673 92.3104 389.989 92.2612 390.288 92.2713C390.618 92.2824 390.93 92.3528 391.225 92.4826C391.786 92.7412 392.142 93.2777 392.295 94.0918C392.319 94.2724 392.327 94.4675 392.32 94.677C392.298 95.3355 392.049 96.0463 391.574 96.8093C390.941 97.8068 389.367 99.6116 386.852 102.224C384.366 104.837 381.44 106.746 378.074 107.951C375.162 108.991 372.838 109.482 371.102 109.424C370.803 109.413 370.534 109.389 370.295 109.351C368.477 109.08 367.104 108.48 366.176 107.549C365.279 106.59 364.645 105.415 364.272 104.024C363.901 102.603 363.732 100.935 363.767 99.0181L363.768 98.9732C363.837 96.9379 365.471 89.3669 368.669 76.2603Z" fill="white"/>
<path d="M406.705 74.8924C414.13 68.6181 418.901 62.3117 421.017 55.973C422.033 52.9809 422.59 50.7678 422.689 49.3337C422.777 48.0489 422.492 47.384 421.835 47.3388C421.686 47.3286 421.521 47.3173 421.342 47.305L421.028 47.2835C417.887 47.1278 413.112 56.3307 406.705 74.8924ZM399.904 77.5323C406.477 60.0627 410.66 50.0836 412.452 47.595C414.275 45.0786 415.722 43.4669 416.791 42.7599C417.86 42.0528 419.211 41.6202 420.843 41.4621C421.538 41.3898 422.185 41.3742 422.782 41.4152C423.559 41.4686 424.24 41.6054 424.825 41.8257C425.876 42.2581 426.673 42.8981 427.215 43.7459C427.757 44.5936 427.989 45.8102 427.91 47.3958L427.891 47.6647C427.781 49.2781 427.389 51.4876 426.716 54.2931C425.998 57.3057 424.78 60.404 423.061 63.5879C421.371 66.7739 418.997 70.093 415.938 73.5452C412.879 76.9974 408.859 80.0234 403.877 82.6231C401.036 92.0939 399.546 97.8302 399.408 99.832L399.384 100.19C399.422 101.814 399.669 103.032 400.124 103.844C400.61 104.627 401.435 105.074 402.598 105.184L402.643 105.187C403.808 105.267 405.596 104.805 408.006 103.799C410.477 102.798 412.631 101.37 414.469 99.5154C416.31 97.6306 417.508 96.362 418.063 95.7097C418.65 95.0296 419.295 94.5936 419.999 94.4018C420.336 94.3048 420.654 94.2666 420.952 94.2871C421.281 94.3097 421.591 94.391 421.881 94.531C422.432 94.809 422.77 95.3575 422.894 96.1765C422.911 96.3579 422.913 96.5531 422.899 96.7622C422.853 97.4195 422.58 98.1212 422.079 98.8672C421.411 99.842 419.775 101.591 417.171 104.114C414.596 106.638 411.605 108.444 408.198 109.531C405.252 110.47 402.912 110.879 401.18 110.76C400.881 110.74 400.613 110.706 400.376 110.66C398.568 110.326 397.216 109.678 396.322 108.716C395.459 107.726 394.866 106.529 394.542 105.126C394.22 103.693 394.11 102.02 394.212 100.105L394.215 100.061C394.354 98.029 396.251 90.5195 399.904 77.5323Z" fill="white"/>
<path d="M449.257 98.8728C456.276 77.4515 460.993 64.7047 463.409 60.6326C465.858 56.5346 468.14 53.5172 470.256 51.5807C472.402 49.6478 474.262 48.4186 475.838 47.893C477.224 47.434 478.333 47.2569 479.165 47.3619L479.432 47.3956C480.283 47.5935 480.988 47.8636 481.548 48.206C482.142 48.5224 482.663 49.2975 483.111 50.5313C483.422 51.4157 483.488 52.571 483.308 53.9972C483.233 54.5915 483.121 55.2414 482.972 55.947C482.4 58.32 481.3 61.0638 479.669 64.1784C478.042 67.2634 475.383 71.35 471.693 76.4385C468.002 81.5269 462.358 88.9347 454.762 98.6618C457.048 100.158 458.92 100.998 460.375 101.181C460.613 101.211 460.838 101.224 461.05 101.221C462.621 101.208 464.135 100.569 465.593 99.304C467.054 98.0093 468.112 97.1617 468.766 96.7613C469.454 96.3349 470.175 96.124 470.929 96.1286L471.196 96.1623C471.761 96.2336 472.121 96.4903 472.276 96.9325C472.339 97.1517 472.352 97.4099 472.314 97.707C472.262 98.123 472.109 98.6169 471.856 99.1886C471.401 100.158 470.973 100.919 470.572 101.472C470.174 101.995 469.062 102.911 467.236 104.22C465.411 105.529 463.648 106.348 461.946 106.677C461.292 106.836 460.475 106.854 459.494 106.73C457.949 106.535 456.022 106.02 453.712 105.185C453.725 110.59 453.67 114.854 453.547 117.978C453.425 121.102 453.157 124.539 452.744 128.291L452.665 128.915C452.223 132.421 451.447 135.704 450.336 138.763C449.144 141.993 447.614 144.185 445.748 145.338C444.172 146.347 442.745 146.77 441.468 146.609C441.23 146.579 441.011 146.521 440.81 146.436C439.355 146.011 438.18 145.032 437.287 143.501C436.519 142.166 436.334 139.924 436.732 136.775C436.796 136.27 436.876 135.752 436.973 135.221C437.624 131.258 441.719 119.142 449.257 98.8728ZM449.631 112.051C444.499 127.13 441.805 135.679 441.55 137.7C441.528 137.878 441.528 137.999 441.55 138.062C441.694 139.076 442.022 139.706 442.534 139.952C442.616 140.023 442.716 140.066 442.835 140.081C443.251 140.133 443.689 139.887 444.151 139.341C444.746 138.692 445.302 137.751 445.82 136.518C446.364 135.319 446.901 133.455 447.431 130.926C447.618 129.923 447.848 128.337 448.122 126.168C448.542 122.84 449.045 118.135 449.631 112.051ZM458.376 85.8061C467.61 73.6292 473.276 65.5603 475.376 61.5992C476.962 58.5997 477.824 56.5502 477.963 55.4509C478.008 55.0943 477.995 54.8362 477.925 54.6763C477.621 54.2154 477.216 53.953 476.711 53.8893C476.473 53.8593 476.2 53.8701 475.892 53.9218C474.963 54.1064 473.217 56.1047 470.653 59.9167C468.089 63.7286 463.997 72.3584 458.376 85.8061Z" fill="white"/>
<path d="M498.114 92.8703C497.97 91.512 497.103 90.6885 495.511 90.3998C495.055 90.7808 494.718 91.3632 494.499 92.1469L494.478 92.28C494.363 92.9894 494.882 93.4378 496.034 93.6249C496.03 93.6545 496.042 93.6717 496.072 93.6765C497.254 93.8685 497.935 93.5997 498.114 92.8703ZM482.954 119.809C479.909 119.314 477.614 118.502 476.068 117.371C474.523 116.24 473.416 114.74 472.748 112.872C472.115 110.979 471.936 108.72 472.21 106.095C472.295 105.199 472.402 104.351 472.532 103.553C472.782 102.016 473.111 100.643 473.519 99.4355C474.092 97.5868 474.951 95.663 476.095 93.6642C477.273 91.6407 479.212 89.6952 481.912 87.8277C484.641 85.965 486.773 84.7942 488.307 84.3151C489.517 83.9654 490.477 83.8481 491.186 83.9633C491.363 83.9921 491.524 84.0333 491.667 84.0868C492.347 84.3794 492.616 85.0602 492.473 86.1291C494.621 85.4161 496.163 85.0748 497.099 85.1054C497.523 85.1134 497.926 85.1487 498.311 85.2111C498.784 85.2879 499.222 85.3894 499.627 85.5157C500.401 85.7931 501.135 86.5039 501.829 87.6482C502.557 88.7677 503.154 90.7912 503.619 93.7187C505.778 92.9465 507.571 91.9937 508.999 90.8602C510.461 89.702 511.458 89.075 511.989 88.9792C512.269 88.9337 512.543 88.9326 512.809 88.9758C513.016 89.0094 513.233 89.0749 513.46 89.1725C513.908 89.3971 514.186 89.7455 514.291 90.2177C514.396 90.6899 514.403 91.2068 514.312 91.7685C514.221 92.3301 513.388 93.2568 511.813 94.5484C510.272 95.8152 507.455 97.2844 503.361 98.9559C502.207 103.259 501.162 106.518 500.226 108.732C499.29 110.947 498.099 112.862 496.654 114.478C495.237 116.099 493.353 117.522 491 118.748C488.651 119.945 485.969 120.298 482.954 119.809ZM490.387 88.8852C487.066 89.3471 484.396 90.9314 482.379 93.6379C480.397 96.3196 479.056 98.9691 478.358 101.586C478.018 102.745 477.769 103.812 477.611 104.787C477.409 106.029 477.34 107.11 477.403 108.03C477.489 109.743 478.222 111.303 479.601 112.711C480.61 113.785 481.854 114.442 483.332 114.682C483.805 114.758 484.314 114.796 484.861 114.793C486.992 114.745 489.104 113.98 491.195 112.5C493.321 110.994 494.938 108.784 496.049 105.869C496.915 103.522 497.476 101.565 497.73 99.9986C497.793 99.6143 497.835 99.2572 497.859 98.9272C497.292 98.8656 496.743 98.7916 496.211 98.7052C493.935 98.3356 492.323 97.8919 491.375 97.374C490.226 96.7929 489.533 96.013 489.298 95.0342C489.096 94.0307 489.056 93.0683 489.175 92.1471L489.204 91.9698C489.348 91.0829 489.742 90.0547 490.387 88.8852Z" fill="white"/>
<path d="M523.762 90.3352C531.945 85.0873 537.5 79.4598 540.428 73.4529C541.827 70.6195 542.67 68.4984 542.955 67.0896C543.211 65.8274 543.016 65.131 542.37 65.0002C542.223 64.9704 542.062 64.9377 541.886 64.902L541.577 64.8396C538.484 64.2739 532.545 72.7725 523.762 90.3352ZM516.674 92.0619C525.478 75.6034 530.931 66.2579 533.034 64.0254C535.171 61.7695 536.817 60.3611 537.969 59.8001C539.122 59.2392 540.517 58.9872 542.156 59.0441C542.855 59.0635 543.498 59.1326 544.085 59.2515C544.848 59.4061 545.505 59.631 546.056 59.926C547.042 60.4923 547.747 61.2312 548.174 62.1426C548.6 63.054 548.671 64.2905 548.385 65.8521L548.331 66.1162C548.01 67.7012 547.333 69.8404 546.298 72.5336C545.192 75.4264 543.579 78.3385 541.457 81.2698C539.365 84.2071 536.576 87.1867 533.092 90.2087C529.607 93.2306 525.226 95.7041 519.947 97.6291C515.889 106.646 513.661 112.138 513.263 114.105L513.192 114.457C513.017 116.072 513.102 117.311 513.447 118.175C513.826 119.016 514.585 119.567 515.724 119.828L515.768 119.837C516.913 120.069 518.746 119.845 521.267 119.164C523.847 118.495 526.17 117.361 528.236 115.763C530.307 114.135 531.661 113.035 532.296 112.461C532.967 111.863 533.664 111.515 534.387 111.417C534.734 111.365 535.054 111.369 535.347 111.429C535.67 111.494 535.966 111.615 536.236 111.792C536.746 112.14 537.009 112.728 537.025 113.556C537.018 113.738 536.994 113.932 536.953 114.137C536.822 114.783 536.459 115.443 535.864 116.117C535.075 116.996 533.224 118.515 530.311 120.675C527.428 122.841 524.227 124.24 520.707 124.871C517.663 125.416 515.29 125.516 513.588 125.171C513.294 125.111 513.033 125.043 512.804 124.966C511.055 124.398 509.8 123.578 509.04 122.508C508.314 121.413 507.883 120.15 507.745 118.716C507.614 117.253 507.724 115.58 508.075 113.695L508.084 113.651C508.488 111.655 511.352 104.459 516.674 92.0619Z" fill="white"/>
<path d="M553.557 91.9121C563.706 86.3483 570.386 80.0901 573.598 73.1374C574.075 71.1884 573.866 70.089 572.971 69.8392L572.884 69.8179C569.393 68.9637 562.951 76.3284 553.557 91.9121ZM546.772 109.814L547.426 109.974C548.714 110.382 549.954 110.732 551.147 111.024C559.001 112.945 563.543 111.96 564.773 108.068L564.944 107.37C565.427 105.145 564.361 103.327 561.746 101.917L561.092 101.756C553.408 102.035 548.635 104.72 546.772 109.814ZM544.453 114.565C540.593 122.654 538.24 127.104 537.394 127.915C536.556 128.696 535.693 129.071 534.807 129.039C534.313 129.041 533.906 129.003 533.586 128.925C533.324 128.861 533.117 128.764 532.964 128.634C532.621 128.396 532.474 127.99 532.522 127.416L532.532 127.372C532.76 126.442 535.497 120.359 540.743 109.125C546.184 97.4765 550.668 88.6616 554.198 82.6806C557.727 76.6996 560.619 72.505 562.873 70.0967C565.163 67.6665 567.084 66.1171 568.635 65.4483C570.193 64.7505 571.768 64.4884 573.359 64.662C573.716 64.7184 574.083 64.7928 574.461 64.8853C575.596 65.1629 576.618 65.6445 577.53 66.33C578.755 67.2463 579.407 68.4851 579.488 70.0464C579.514 70.9469 579.392 71.9499 579.121 73.0553C578.922 73.8698 578.647 74.7428 578.296 75.6743C577.42 77.865 575.462 80.6386 572.421 83.995C569.38 87.3514 566.486 89.6648 563.74 90.9351C561.029 92.1834 556.8 94.6633 551.051 98.3746C554.933 97.5054 557.741 96.9902 559.476 96.829C561.24 96.6749 562.857 96.7467 564.326 97.0444L564.762 97.1512C566.042 97.4644 567.192 97.9925 568.213 98.7355C569.336 99.5652 570.024 100.659 570.278 102.016C570.531 103.373 570.611 104.872 570.518 106.514C570.435 107.357 570.297 108.171 570.105 108.957C569.906 109.771 569.652 110.557 569.343 111.314C568.654 112.872 567.513 114.258 565.921 115.471C564.329 116.685 562.68 117.314 560.973 117.359C559.296 117.411 556.993 117.372 554.065 117.241C552.759 121.824 552.564 124.89 553.479 126.44C554.424 127.997 555.598 128.931 557.002 129.244C558.441 129.535 560.332 129.18 562.673 128.181C565.021 127.152 567.19 125.848 569.179 124.269C571.205 122.668 572.438 121.598 572.879 121.058C573.319 120.519 573.841 120.215 574.443 120.146C574.821 120.115 575.228 120.153 575.664 120.26C575.897 120.317 576.14 120.392 576.395 120.485C577.094 120.78 577.456 121.253 577.481 121.907C577.475 122.307 577.419 122.725 577.313 123.161C577.241 123.452 577.156 123.739 577.056 124.023C576.74 124.809 575.149 126.331 572.284 128.59C569.426 130.82 566.657 132.501 563.975 133.633C561.322 134.772 559.127 135.237 557.39 135.027C556.671 134.944 556.005 134.827 555.394 134.678C554.434 134.443 553.587 134.128 552.851 133.732C551.555 133.106 550.333 131.928 549.184 130.198C548.035 128.468 547.507 126.15 547.602 123.244C547.725 120.345 548.157 118.015 548.896 116.254L544.453 114.565Z" fill="white"/>
<path d="M598.673 107.104C599.217 106.95 599.733 106.944 600.222 107.086C600.452 107.153 600.678 107.234 600.9 107.33C601.56 107.74 601.878 108.363 601.854 109.198L601.766 109.5C601.523 110.334 600.458 111.584 598.571 113.249L600.125 119.97C601.338 127.059 601.464 132.258 600.502 135.565C600.293 136.284 600.033 136.91 599.722 137.443C603.2 135.242 605.535 133.488 606.726 132.181C607.871 130.924 608.861 130.416 609.695 130.659L609.781 130.684C610.627 130.992 611.11 131.585 611.229 132.462C611.264 132.877 611.223 133.286 611.106 133.689C610.981 134.12 610.769 134.527 610.471 134.908C609.867 135.699 608.852 136.776 607.426 138.139C606 139.503 603.69 141.014 600.494 142.673C597.306 144.304 593.995 144.807 590.558 144.182C589.843 144.067 589.169 143.918 588.537 143.734C586.15 143.04 584.406 141.956 583.307 140.482C581.9 138.67 581.274 137.069 581.429 135.679C581.46 135.251 581.525 134.865 581.625 134.52C581.843 133.772 582.197 133.251 582.688 132.958C583.187 132.635 583.739 132.561 584.343 132.737C584.515 132.787 584.712 132.86 584.934 132.956C585.767 133.416 586.214 134.186 586.275 135.264C586.335 136.342 586.568 137.096 586.974 137.525C587.416 137.935 588.037 138.318 588.838 138.676C588.945 138.738 589.055 138.786 589.17 138.819C589.947 139.045 591.045 139.021 592.466 138.748C593.944 138.492 595.051 137.098 595.787 134.568L596.012 133.791C596.738 130.759 596.209 125.287 594.423 117.376C587.722 122.726 583.834 125.743 582.762 126.429C581.92 126.964 581.168 127.136 580.507 126.943C580.306 126.885 580.131 126.787 579.984 126.651C579.168 126.133 578.861 125.311 579.064 124.185C579.06 124.09 579.066 124.014 579.083 123.956C579.401 122.864 580.676 121.535 582.909 119.97C585.27 118.286 588.277 115.776 591.929 112.44C595.61 109.113 597.858 107.334 598.673 107.104Z" fill="white"/>
<path d="M619.189 143.703C620.384 144.095 621.269 144.859 621.842 145.992C622.415 147.126 622.506 148.291 622.113 149.486C621.712 150.709 620.944 151.608 619.81 152.181C618.685 152.726 617.526 152.802 616.33 152.41C615.135 152.017 614.247 151.268 613.664 150.163C613.091 149.029 613.005 147.85 613.407 146.627C613.799 145.432 614.562 144.548 615.696 143.974C616.83 143.401 617.994 143.311 619.189 143.703ZM623.05 133.387C637.379 106.066 645.071 91.8071 646.127 90.6091C647.191 89.3826 648.382 88.7806 649.698 88.8031C650.106 88.8108 650.494 88.8753 650.864 88.9968C651.547 89.221 652.079 89.6637 652.461 90.3249C652.996 91.2885 653.062 92.3821 652.66 93.6056C652.249 94.8575 647.629 102.592 638.8 116.809C630 131.035 625.231 138.216 624.492 138.352C624.019 138.449 623.598 138.437 623.228 138.315C622.943 138.222 622.692 138.076 622.473 137.878C621.893 137.436 621.626 136.859 621.67 136.149C621.669 135.959 621.706 135.751 621.781 135.523C621.977 134.926 622.4 134.213 623.05 133.387Z" fill="white"/>
<path fill-rule="evenodd" clip-rule="evenodd" d="M180.058 11.2881C177.681 9.32439 174.145 9.67761 171.962 11.86L171.108 12.7136L170.253 11.86C168.075 9.67761 164.534 9.32439 162.157 11.2881C159.432 13.542 159.289 17.5872 161.727 20.0304L170.123 28.432C170.665 28.9744 171.546 28.9744 172.088 28.432L180.484 20.0304C182.926 17.5872 182.783 13.542 180.058 11.2881Z" fill="#F0C711"/>
<path fill-rule="evenodd" clip-rule="evenodd" d="M605.768 0.348132C605.333 -0.0644489 604.653 -0.0644489 604.217 0.348132C601.968 2.49543 595.512 8.71227 594.499 9.8328C593.595 10.8314 593 12.1489 593 13.6117C593 16.917 595.572 19.5284 598.787 19.5425C600.506 19.5472 602.053 18.8064 603.121 17.6249C603.116 19.3409 603.084 20.077 600.666 21.16C600.005 21.4554 599.626 22.1727 599.79 22.876C599.944 23.5558 600.553 24.0387 601.251 24.0387H608.72C609.447 24.0387 610.089 23.5323 610.225 22.8197C610.356 22.1352 610 21.4507 609.362 21.1694C606.945 20.0911 606.888 19.3831 606.879 17.6249C607.975 18.8346 609.573 19.5847 611.344 19.5378C614.507 19.4581 617 16.8889 617 13.7242C617 12.2145 616.428 10.8549 615.501 9.82811C614.479 8.71227 608.022 2.49543 605.768 0.348132Z" fill="#3598D3"/>
<path fill-rule="evenodd" clip-rule="evenodd" d="M703.061 155.344C704.171 152.507 702.083 149.399 699 149.399C695.913 149.399 693.832 152.511 694.939 155.344C692.31 154.996 690 157.039 690 159.665C690 162.073 691.951 164.024 694.359 164.024C695.643 164.024 696.796 163.469 697.594 162.587C697.59 163.877 697.566 164.429 695.73 165.244C695.245 165.459 694.978 165.986 695.087 166.506C695.196 167.027 695.657 167.399 696.187 167.399H701.812C702.343 167.399 702.804 167.027 702.913 166.506C703.022 165.986 702.755 165.462 702.27 165.244C700.455 164.436 700.413 163.905 700.406 162.587C701.204 163.469 702.357 164.024 703.641 164.024C706.049 164.024 708 162.073 708 159.665C708 157.035 705.687 154.996 703.061 155.344Z" fill="#4CBA6E"/>
<path fill-rule="evenodd" clip-rule="evenodd" d="M7.30851 135.254C7.01888 134.915 6.49997 134.915 6.21035 135.254L0.17649 142.322C-0.0588301 142.597 -0.0588301 143.002 0.17649 143.276L6.21035 150.345C6.49997 150.683 7.01888 150.683 7.30851 150.345L13.3424 143.276C13.5777 143.002 13.5777 142.597 13.3424 142.322L7.30851 135.254Z" fill="#E74B3C"/>
<path fill-rule="evenodd" clip-rule="evenodd" d="M427.309 208.254C427.019 207.915 426.5 207.915 426.21 208.254L420.176 215.322C419.941 215.597 419.941 216.002 420.176 216.276L426.21 223.345C426.5 223.683 427.019 223.683 427.309 223.345L433.342 216.276C433.578 216.002 433.578 215.597 433.342 215.322L427.309 208.254Z" fill="#E74B3C"/>
<defs>
<linearGradient id="paint0_linear" x1="624.5" y1="168.887" x2="84.5" y2="168.887" gradientUnits="userSpaceOnUse">
<stop stop-color="#E74B3C" stop-opacity="0"/>
<stop offset="0.21875" stop-color="#E74B3C"/>
<stop offset="0.6875" stop-color="#E74B3C"/>
<stop offset="1" stop-color="#E74B3C" stop-opacity="0"/>
</linearGradient>
<linearGradient id="paint1_linear" x1="79" y1="193.387" x2="627" y2="188.887" gradientUnits="userSpaceOnUse">
<stop stop-color="#F0C711" stop-opacity="0"/>
<stop offset="0.208333" stop-color="#F0C711"/>
<stop offset="0.796875" stop-color="#F0C711"/>
<stop offset="1" stop-color="#F0C711" stop-opacity="0"/>
</linearGradient>
<linearGradient id="paint2_linear" x1="632" y1="202.387" x2="89.5" y2="199.387" gradientUnits="userSpaceOnUse">
<stop stop-color="#4CBA6E" stop-opacity="0"/>
<stop offset="0.177083" stop-color="#4CBA6E"/>
<stop offset="0.765625" stop-color="#4CBA6E"/>
<stop offset="1" stop-color="#4CBA6E" stop-opacity="0"/>
</linearGradient>
<linearGradient id="paint3_linear" x1="632" y1="214.887" x2="78" y2="222.387" gradientUnits="userSpaceOnUse">
<stop stop-color="#3598D3" stop-opacity="0"/>
<stop offset="0.166667" stop-color="#3598D3"/>
<stop offset="0.5" stop-color="#3598D3"/>
<stop offset="0.786458" stop-color="#3598D3"/>
<stop offset="1" stop-color="#3598D3" stop-opacity="0"/>
</linearGradient>
</defs>
</svg>
